<svg width="32" height="32" viewBox="0 0 32 32" fill="none" xmlns="http://www.w3.org/2000/svg">
<g id="vuesax/outline/cpu-charge">
<g id="cpu-charge">
<path id="Vector" d="M19.2 27.6667H12.8C6.94667 27.6667 4.33334 25.0533 4.33334 19.2V12.8C4.33334 6.94667 6.94667 4.33333 12.8 4.33333H19.2C25.0533 4.33333 27.6667 6.94667 27.6667 12.8V19.2C27.6667 25.0533 25.0533 27.6667 19.2 27.6667ZM12.8 6.33333C8.02667 6.33333 6.33334 8.02667 6.33334 12.8V19.2C6.33334 23.9733 8.02667 25.6667 12.8 25.6667H19.2C23.9733 25.6667 25.6667 23.9733 25.6667 19.2V12.8C25.6667 8.02667 23.9733 6.33333 19.2 6.33333H12.8Z" fill="url(#paint0_linear_2508_101)"/>
<path id="Vector_2" d="M18 23.6667H14C10.1333 23.6667 8.33334 21.8667 8.33334 18V14C8.33334 10.1333 10.1333 8.33333 14 8.33333H18C21.8667 8.33333 23.6667 10.1333 23.6667 14V18C23.6667 21.8667 21.8667 23.6667 18 23.6667ZM14 10.3333C11.2267 10.3333 10.3333 11.2267 10.3333 14V18C10.3333 20.7733 11.2267 21.6667 14 21.6667H18C20.7733 21.6667 21.6667 20.7733 21.6667 18V14C21.6667 11.2267 20.7733 10.3333 18 10.3333H14Z" fill="url(#paint1_linear_2508_101)"/>
<path id="Vector_3" d="M10.68 6.33333C10.12 6.33333 9.68 5.88 9.68 5.33333V2.66667C9.68 2.12 10.1333 1.66667 10.68 1.66667C11.2267 1.66667 11.68 2.12 11.68 2.66667V5.33333C11.68 5.88 11.2267 6.33333 10.68 6.33333Z" fill="url(#paint2_linear_2508_101)"/>
<path id="Vector_4" d="M16 6.33333C15.4533 6.33333 15 5.88 15 5.33333V2.66667C15 2.12 15.4533 1.66667 16 1.66667C16.5467 1.66667 17 2.12 17 2.66667V5.33333C17 5.88 16.5467 6.33333 16 6.33333Z" fill="url(#paint3_linear_2508_101)"/>
<path id="Vector_5" d="M21.3333 6.33333C20.7867 6.33333 20.3333 5.88 20.3333 5.33333V2.66667C20.3333 2.12 20.7867 1.66667 21.3333 1.66667C21.88 1.66667 22.3333 2.12 22.3333 2.66667V5.33333C22.3333 5.88 21.88 6.33333 21.3333 6.33333Z" fill="url(#paint4_linear_2508_101)"/>
<path id="Vector_6" d="M29.3333 11.6667H26.6667C26.12 11.6667 25.6667 11.2133 25.6667 10.6667C25.6667 10.12 26.12 9.66667 26.6667 9.66667H29.3333C29.88 9.66667 30.3333 10.12 30.3333 10.6667C30.3333 11.2133 29.8933 11.6667 29.3333 11.6667Z" fill="url(#paint5_linear_2508_101)"/>
<path id="Vector_7" d="M29.3333 17H26.6667C26.12 17 25.6667 16.5467 25.6667 16C25.6667 15.4533 26.12 15 26.6667 15H29.3333C29.88 15 30.3333 15.4533 30.3333 16C30.3333 16.5467 29.8933 17 29.3333 17Z" fill="url(#paint6_linear_2508_101)"/>
<path id="Vector_8" d="M29.3333 22.3333H26.6667C26.12 22.3333 25.6667 21.88 25.6667 21.3333C25.6667 20.7867 26.12 20.3333 26.6667 20.3333H29.3333C29.88 20.3333 30.3333 20.7867 30.3333 21.3333C30.3333 21.88 29.8933 22.3333 29.3333 22.3333Z" fill="url(#paint7_linear_2508_101)"/>
<path id="Vector_9" d="M21.3333 30.3333C20.7867 30.3333 20.3333 29.88 20.3333 29.3333V26.6667C20.3333 26.12 20.7867 25.6667 21.3333 25.6667C21.88 25.6667 22.3333 26.12 22.3333 26.6667V29.3333C22.3333 29.88 21.88 30.3333 21.3333 30.3333Z" fill="url(#paint8_linear_2508_101)"/>
<path id="Vector_10" d="M16.0133 30.3333C15.4667 30.3333 15.0133 29.88 15.0133 29.3333V26.6667C15.0133 26.12 15.4667 25.6667 16.0133 25.6667C16.56 25.6667 17.0133 26.12 17.0133 26.6667V29.3333C17.0133 29.88 16.56 30.3333 16.0133 30.3333Z" fill="url(#paint9_linear_2508_101)"/>
<path id="Vector_11" d="M10.68 30.3333C10.1333 30.3333 9.68 29.88 9.68 29.3333V26.6667C9.68 26.12 10.1333 25.6667 10.68 25.6667C11.2267 25.6667 11.68 26.12 11.68 26.6667V29.3333C11.68 29.88 11.2267 30.3333 10.68 30.3333Z" fill="url(#paint10_linear_2508_101)"/>
<path id="Vector_12" d="M5.33333 11.6667H2.66666C2.12 11.6667 1.66666 11.2267 1.66666 10.6667C1.66666 10.1067 2.12 9.66667 2.66666 9.66667H5.33333C5.88 9.66667 6.33333 10.12 6.33333 10.6667C6.33333 11.2133 5.89333 11.6667 5.33333 11.6667Z" fill="url(#paint11_linear_2508_101)"/>
<path id="Vector_13" d="M5.33333 17H2.66666C2.12 17 1.66666 16.5467 1.66666 16C1.66666 15.4533 2.12 15 2.66666 15H5.33333C5.88 15 6.33333 15.4533 6.33333 16C6.33333 16.5467 5.89333 17 5.33333 17Z" fill="url(#paint12_linear_2508_101)"/>
<path id="Vector_14" d="M5.33333 22.3333H2.66666C2.12 22.3333 1.66666 21.88 1.66666 21.3333C1.66666 20.7867 2.12 20.3333 2.66666 20.3333H5.33333C5.88 20.3333 6.33333 20.7867 6.33333 21.3333C6.33333 21.88 5.89333 22.3333 5.33333 22.3333Z" fill="url(#paint13_linear_2508_101)"/>
<path id="Vector_15" d="M16 20.0667C15.8267 20.0667 15.6533 20.0267 15.5067 19.9333C15.0267 19.6533 14.8667 19.04 15.1333 18.5733L16.04 17H15.2533C14.6133 17 14.0933 16.72 13.8133 16.24C13.5333 15.76 13.56 15.16 13.8667 14.6133L15.12 12.4267C15.4 11.9467 16.0133 11.7867 16.48 12.0533C16.96 12.3333 17.12 12.9467 16.8533 13.4133L15.9467 14.9867H16.7333C17.3733 14.9867 17.8933 15.2667 18.1733 15.7467C18.4533 16.2267 18.4267 16.8267 18.12 17.3733L16.8667 19.56C16.68 19.8933 16.3467 20.0667 16 20.0667Z" fill="url(#paint14_linear_2508_101)"/>
</g>
</g>
<defs>
<linearGradient id="paint0_linear_2508_101" x1="4.33334" y1="16" x2="27.6667" y2="16" gradientUnits="userSpaceOnUse">
<stop stop-color="#F8D239"/>
<stop offset="1" stop-color="#F0B90B"/>
</linearGradient>
<linearGradient id="paint1_linear_2508_101" x1="8.33334" y1="16" x2="23.6667" y2="16" gradientUnits="userSpaceOnUse">
<stop stop-color="#F8D239"/>
<stop offset="1" stop-color="#F0B90B"/>
</linearGradient>
<linearGradient id="paint2_linear_2508_101" x1="9.68" y1="4" x2="11.68" y2="4" gradientUnits="userSpaceOnUse">
<stop stop-color="#F8D239"/>
<stop offset="1" stop-color="#F0B90B"/>
</linearGradient>
<linearGradient id="paint3_linear_2508_101" x1="15" y1="4" x2="17" y2="4" gradientUnits="userSpaceOnUse">
<stop stop-color="#F8D239"/>
<stop offset="1" stop-color="#F0B90B"/>
</linearGradient>
<linearGradient id="paint4_linear_2508_101" x1="20.3333" y1="4" x2="22.3333" y2="4" gradientUnits="userSpaceOnUse">
<stop stop-color="#F8D239"/>
<stop offset="1" stop-color="#F0B90B"/>
</linearGradient>
<linearGradient id="paint5_linear_2508_101" x1="25.6667" y1="10.6667" x2="30.3333" y2="10.6667" gradientUnits="userSpaceOnUse">
<stop stop-color="#F8D239"/>
<stop offset="1" stop-color="#F0B90B"/>
</linearGradient>
<linearGradient id="paint6_linear_2508_101" x1="25.6667" y1="16" x2="30.3333" y2="16" gradientUnits="userSpaceOnUse">
<stop stop-color="#F8D239"/>
<stop offset="1" stop-color="#F0B90B"/>
</linearGradient>
<linearGradient id="paint7_linear_2508_101" x1="25.6667" y1="21.3333" x2="30.3333" y2="21.3333" gradientUnits="userSpaceOnUse">
<stop stop-color="#F8D239"/>
<stop offset="1" stop-color="#F0B90B"/>
</linearGradient>
<linearGradient id="paint8_linear_2508_101" x1="20.3333" y1="28" x2="22.3333" y2="28" gradientUnits="userSpaceOnUse">
<stop stop-color="#F8D239"/>
<stop offset="1" stop-color="#F0B90B"/>
</linearGradient>
<linearGradient id="paint9_linear_2508_101" x1="15.0133" y1="28" x2="17.0133" y2="28" gradientUnits="userSpaceOnUse">
<stop stop-color="#F8D239"/>
<stop offset="1" stop-color="#F0B90B"/>
</linearGradient>
<linearGradient id="paint10_linear_2508_101" x1="9.68" y1="28" x2="11.68" y2="28" gradientUnits="userSpaceOnUse">
<stop stop-color="#F8D239"/>
<stop offset="1" stop-color="#F0B90B"/>
</linearGradient>
<linearGradient id="paint11_linear_2508_101" x1="1.66666" y1="10.6667" x2="6.33333" y2="10.6667" gradientUnits="userSpaceOnUse">
<stop stop-color="#F8D239"/>
<stop offset="1" stop-color="#F0B90B"/>
</linearGradient>
<linearGradient id="paint12_linear_2508_101" x1="1.66666" y1="16" x2="6.33333" y2="16" gradientUnits="userSpaceOnUse">
<stop stop-color="#F8D239"/>
<stop offset="1" stop-color="#F0B90B"/>
</linearGradient>
<linearGradient id="paint13_linear_2508_101" x1="1.66666" y1="21.3333" x2="6.33333" y2="21.3333" gradientUnits="userSpaceOnUse">
<stop stop-color="#F8D239"/>
<stop offset="1" stop-color="#F0B90B"/>
</linearGradient>
<linearGradient id="paint14_linear_2508_101" x1="13.619" y1="15.9958" x2="18.3677" y2="15.9958" gradientUnits="userSpaceOnUse">
<stop stop-color="#F8D239"/>
<stop offset="1" stop-color="#F0B90B"/>
</linearGradient>
</defs>
</svg>
