<?xml version="1.0" encoding="utf-8"?>
<svg viewBox="0.5102 0.4872 38.3337 38.3345" width="38.3337" height="38.3345" xmlns="http://www.w3.org/2000/svg">
  <path id="path104" d="M62.4989 50.3829L46.1471 50.3832C46 50.8082 45.7602 51.2085 45.4208 51.5479C44.2234 52.7453 42.2819 52.7453 41.0842 51.5479C39.8868 50.3505 39.8868 48.409 41.0842 47.2116C42.2819 46.0139 44.2234 46.0139 45.4208 47.2116C45.7602 47.551 46 47.9513 46.1471 48.3766L60.8178 48.3763L47.3914 34.95C45.4573 33.0161 42.3217 33.0161 40.3875 34.95L34.2128 41.1247H43.9112C44.0582 40.6994 44.298 40.299 44.6375 39.9596C45.8349 38.762 47.7764 38.762 48.9738 39.9596C50.1715 41.157 50.1715 43.0986 48.9738 44.296C47.7764 45.4934 45.8349 45.4934 44.6375 44.296C44.298 43.9566 44.0582 43.5562 43.9112 43.1312L32.2066 43.1309L26.1729 49.1649C24.2388 51.0987 24.2388 54.2347 26.1729 56.1688L26.3573 56.3532L31.8027 50.9075C31.6059 50.5028 31.4926 50.0503 31.4926 49.5702C31.4926 47.8767 32.8653 46.5039 34.5588 46.5039C36.2523 46.5039 37.6253 47.8767 37.6253 49.5702C37.6253 51.2636 36.2523 52.6367 34.5588 52.6367C34.0787 52.6367 33.6262 52.5231 33.2218 52.3263L27.7761 57.772L32.1648 62.1608L39.0088 55.3168H48.7384C49.2479 54.3299 50.2755 53.6538 51.4627 53.6538C53.1562 53.6538 54.529 55.0265 54.529 56.72C54.529 58.4135 53.1562 59.7865 51.4627 59.7865C49.9758 59.7865 48.7367 58.728 48.4563 57.3234H39.8402L33.5837 63.5796L38.7177 68.7136L41.5567 65.8748C41.36 65.4701 41.2466 65.0176 41.2466 64.5375C41.2466 62.844 42.6194 61.4712 44.3129 61.4712C46.0064 61.4712 47.3791 62.844 47.3791 64.5375C47.3791 66.2309 46.0064 67.6037 44.3129 67.6037C43.8327 67.6037 43.3802 67.4904 42.9755 67.2936L40.1368 70.1327L40.3875 70.3835C42.3217 72.3176 45.4573 72.3176 47.3914 70.3835L61.6061 56.1688C63.1723 54.6026 63.4692 52.249 62.4989 50.3829Z" fill="#F4BA2F" transform="matrix(1, 0, 0, 1, -24.212170484843398, -33.012358203714456)"/>
</svg>