<svg width="218" height="106" viewBox="0 0 218 106" fill="none" xmlns="http://www.w3.org/2000/svg">
<g id="g10">
<g id="g14">
<path id="path16" d="M77.2611 54.492L74.9733 56.8769V61.1841H71.0554V44.1494H74.9733V52.107L82.5174 44.1494H86.8977L79.8405 51.7421L87.3114 61.1841H82.712L77.2611 54.492Z" fill="#F4BA2F"/>
</g>
<g id="g18">
<path id="path20" d="M100.895 54.5405L98.1938 48.0187L95.4922 54.5405H100.895ZM102.136 57.5338H94.227L92.7182 61.1841H88.6787L96.2712 44.1494H100.165L107.782 61.1841H103.645L102.136 57.5338Z" fill="#F4BA2F"/>
</g>
<g id="g22">
<path id="path24" d="M122.287 58.0206V61.1842H109.098V44.1494H122.287V47.3131H113.016V51.012H120.925V54.0782H113.016V58.0206H122.287Z" fill="#F4BA2F"/>
</g>
<g id="g26">
<g id="Clip path group">
<mask id="mask0_171_1373" style="mask-type:luminance" maskUnits="userSpaceOnUse" x="-13" y="-29" width="231" height="164">
<g id="clipPath32">
<path id="path30" d="M-13 -29H218V134.333H-13V-29Z" fill="white"/>
</g>
</mask>
<g mask="url(#mask0_171_1373)">
<g id="g28">
<g id="g34">
<path id="path36" d="M131.903 57.9475C133.606 57.9475 134.964 57.4731 135.979 56.524C136.992 55.5749 137.499 54.2892 137.499 52.6668C137.499 51.0446 136.992 49.7589 135.979 48.8098C134.964 47.8607 133.606 47.386 131.903 47.386H128.301V57.9475H131.903ZM124.358 44.1494H132.097C133.947 44.1494 135.581 44.5025 137.001 45.2079C138.42 45.9137 139.523 46.9077 140.31 48.1891C141.097 49.4707 141.491 50.9631 141.491 52.6668C141.491 54.3701 141.097 55.863 140.31 57.1447C139.523 58.426 138.42 59.4196 137.001 60.1256C135.581 60.8313 133.947 61.1841 132.097 61.1841H124.358V44.1494Z" fill="#F4BA2F"/>
</g>
<g id="g38">
<path id="path40" d="M153.417 48.1282C152.801 47.6171 151.9 47.3616 150.716 47.3616H147.504V53.2992H150.716C151.9 53.2992 152.801 53.0399 153.417 52.5208C154.034 52.0017 154.342 51.2716 154.342 50.3304C154.342 49.3734 154.034 48.6391 153.417 48.1282ZM154.415 61.1839L151.13 56.4387H150.935H147.504V61.1839H143.562V44.1494H150.935C152.444 44.1494 153.754 44.401 154.865 44.9037C155.977 45.4069 156.832 46.1206 157.433 47.0452C158.033 47.9699 158.333 49.0652 158.333 50.3304C158.333 51.5959 158.029 52.6874 157.421 53.6035C156.812 54.5202 155.948 55.2218 154.829 55.7086L158.65 61.1839H154.415Z" fill="#F4BA2F"/>
</g>
<g id="g42">
<path id="path44" d="M173.391 54.5405L170.69 48.0187L167.988 54.5405H173.391ZM174.632 57.5338H166.723L165.214 61.1841H161.174L168.767 44.1494H172.661L180.278 61.1841H176.141L174.632 57.5338Z" fill="#F4BA2F"/>
</g>
<g id="g46">
<path id="path48" d="M72.0859 68.6018C72.4044 68.9201 72.7952 69.0795 73.2589 69.0795C73.7223 69.0795 74.1133 68.9201 74.4319 68.6018C74.7501 68.2723 74.9093 67.8783 74.9093 67.4206C74.9093 66.9569 74.7501 66.5659 74.4319 66.2473C74.1133 65.9238 73.7223 65.7617 73.2589 65.7617C72.7952 65.7617 72.4044 65.9238 72.0859 66.2473C71.7676 66.5659 71.6085 66.9569 71.6085 67.4206C71.6085 67.8783 71.7676 68.2723 72.0859 68.6018ZM74.9093 66.1469V63.6503H75.4624V69.515H74.9093V68.6937C74.524 69.3086 73.9596 69.6157 73.2169 69.6157C72.6193 69.6157 72.1084 69.4033 71.6839 68.9785C71.2649 68.5543 71.0553 68.0349 71.0553 67.4206C71.0553 66.8063 71.2649 66.2869 71.6839 65.8621C72.1084 65.4379 72.6193 65.2255 73.2169 65.2255C73.9596 65.2255 74.524 65.5326 74.9093 66.1469Z" fill="white"/>
</g>
<g id="g50">
<path id="path52" d="M81.1337 65.7616C80.6983 65.7616 80.3336 65.8903 80.0406 66.1469C79.7472 66.404 79.5725 66.7417 79.5168 67.1607H82.6417C82.5802 66.7137 82.4101 66.3705 82.1308 66.1301C81.8402 65.8843 81.508 65.7616 81.1337 65.7616ZM81.1337 65.2255C81.7593 65.2255 82.2592 65.4461 82.6335 65.8876C83.0187 66.323 83.2113 66.8397 83.2113 67.4373C83.2113 67.4653 83.2058 67.5517 83.1946 67.6968H79.5168C79.5725 68.1161 79.7514 68.4511 80.0529 68.7022C80.3547 68.9535 80.7317 69.0795 81.1839 69.0795C81.8208 69.0795 82.2705 68.8418 82.5331 68.3672L83.0187 68.652C82.8346 68.9535 82.5816 69.1898 82.2606 69.3599C81.9393 69.5303 81.5779 69.6156 81.1757 69.6156C80.5166 69.6156 79.9802 69.409 79.5672 68.9958C79.1538 68.5823 78.9471 68.0571 78.9471 67.4205C78.9471 66.7895 79.151 66.2673 79.5587 65.8541C79.9665 65.4348 80.4914 65.2255 81.1337 65.2255Z" fill="white"/>
</g>
<g id="g54">
<path id="path56" d="M88.0374 68.9369L89.5034 65.326H90.0901L88.3724 69.515H87.7024L85.9847 65.326H86.5714L88.0374 68.9369Z" fill="white"/>
</g>
<g id="g58">
<path id="path60" d="M95.0916 65.7616C94.6562 65.7616 94.2915 65.8903 93.9985 66.1469C93.7052 66.404 93.5304 66.7417 93.4747 67.1607H96.5997C96.5382 66.7137 96.3681 66.3705 96.0888 66.1301C95.7982 65.8843 95.4659 65.7616 95.0916 65.7616ZM95.0916 65.2255C95.7172 65.2255 96.2172 65.4461 96.5914 65.8876C96.9767 66.323 97.1693 66.8397 97.1693 67.4373C97.1693 67.4653 97.1638 67.5517 97.1525 67.6968H93.4747C93.5304 68.1161 93.7093 68.4511 94.0109 68.7022C94.3127 68.9535 94.6897 69.0795 95.1419 69.0795C95.7787 69.0795 96.2284 68.8418 96.491 68.3672L96.9767 68.652C96.7925 68.9535 96.5396 69.1898 96.2185 69.3599C95.8972 69.5303 95.5359 69.6156 95.1336 69.6156C94.4746 69.6156 93.9381 69.409 93.5252 68.9958C93.1117 68.5823 92.9051 68.0571 92.9051 67.4205C92.9051 66.7895 93.109 66.2673 93.5167 65.8541C93.9244 65.4348 94.4493 65.2255 95.0916 65.2255Z" fill="white"/>
</g>
<path id="path62" d="M101.166 69.5151H100.613V63.3991H101.166V69.5151Z" fill="white"/>
<g id="g64">
<path id="path66" d="M105.681 68.6018C106 68.9201 106.39 69.0795 106.854 69.0795C107.318 69.0795 107.709 68.9201 108.027 68.6018C108.345 68.2723 108.505 67.8783 108.505 67.4206C108.505 66.9569 108.345 66.5659 108.027 66.2473C107.709 65.9238 107.318 65.7617 106.854 65.7617C106.39 65.7617 106 65.9238 105.681 66.2473C105.363 66.5659 105.204 66.9569 105.204 67.4206C105.204 67.8783 105.363 68.2723 105.681 68.6018ZM108.412 68.9871C107.982 69.406 107.463 69.6157 106.854 69.6157C106.234 69.6157 105.712 69.406 105.288 68.9871C104.863 68.5629 104.651 68.0404 104.651 67.4206C104.651 66.8002 104.863 66.2811 105.288 65.8621C105.712 65.4379 106.234 65.2255 106.854 65.2255C107.468 65.2255 107.988 65.4379 108.412 65.8621C108.842 66.2811 109.058 66.8002 109.058 67.4206C109.058 68.0349 108.842 68.5571 108.412 68.9871Z" fill="white"/>
</g>
<g id="g68">
<path id="path70" d="M113.573 68.6018C113.892 68.9201 114.282 69.0795 114.746 69.0795C115.21 69.0795 115.601 68.9201 115.919 68.6018C116.237 68.2723 116.397 67.8783 116.397 67.4206C116.397 66.9569 116.237 66.5659 115.919 66.2473C115.601 65.9238 115.21 65.7617 114.746 65.7617C114.282 65.7617 113.892 65.9238 113.573 66.2473C113.255 66.5659 113.096 66.9569 113.096 67.4206C113.096 67.8783 113.255 68.2723 113.573 68.6018ZM114.788 65.2255C115.385 65.2255 115.894 65.4379 116.313 65.8621C116.737 66.2868 116.95 66.8063 116.95 67.4206C116.95 68.0349 116.737 68.5543 116.313 68.9785C115.894 69.4033 115.385 69.6157 114.788 69.6157C114.045 69.6157 113.481 69.3086 113.096 68.6937V71.1906H112.543V65.326H113.096V66.1469C113.481 65.5326 114.045 65.2255 114.788 65.2255Z" fill="white"/>
</g>
<g id="g72">
<path id="path74" d="M127.313 65.3261V65.8622H126.107V68.4008C126.107 68.6299 126.151 68.7932 126.241 68.8908C126.33 68.9888 126.464 69.039 126.643 69.0417C126.821 69.0445 127.045 69.0401 127.313 69.0291V69.5151C126.715 69.6042 126.273 69.5609 125.985 69.385C125.697 69.2091 125.554 68.8812 125.554 68.4008V65.8622H124.674V65.3261H125.554V64.3204L126.107 64.1531V65.3261H127.313Z" fill="white"/>
</g>
<g id="g76">
<path id="path78" d="M132.758 65.2255C133.261 65.2255 133.661 65.3806 133.957 65.6903C134.252 66.0004 134.401 66.418 134.401 66.9429V69.515H133.848V66.9429C133.848 66.5689 133.748 66.2783 133.551 66.0717C133.352 65.8648 133.071 65.7617 132.708 65.7617C132.289 65.7617 131.959 65.8928 131.715 66.1554C131.473 66.418 131.351 66.8062 131.351 67.3199V69.515H130.798V63.6503H131.351V65.9795C131.664 65.4769 132.133 65.2255 132.758 65.2255Z" fill="white"/>
</g>
<g id="g80">
<path id="path82" d="M139.972 65.7616C139.536 65.7616 139.172 65.8903 138.879 66.1469C138.586 66.404 138.411 66.7417 138.355 67.1607H141.48C141.418 66.7137 141.248 66.3705 140.969 66.1301C140.679 65.8843 140.346 65.7616 139.972 65.7616ZM139.972 65.2255C140.597 65.2255 141.097 65.4461 141.472 65.8876C141.857 66.323 142.049 66.8397 142.049 67.4373C142.049 67.4653 142.044 67.5517 142.033 67.6968H138.355C138.411 68.1161 138.589 68.4511 138.891 68.7022C139.193 68.9535 139.57 69.0795 140.022 69.0795C140.659 69.0795 141.109 68.8418 141.371 68.3672L141.857 68.652C141.673 68.9535 141.42 69.1898 141.099 69.3599C140.777 69.5303 140.416 69.6156 140.014 69.6156C139.355 69.6156 138.819 69.409 138.405 68.9958C137.992 68.5823 137.785 68.0571 137.785 67.4205C137.785 66.7895 137.989 66.2673 138.397 65.8541C138.805 65.4348 139.33 65.2255 139.972 65.2255Z" fill="white"/>
</g>
<g id="g84">
<path id="path86" d="M154.164 68.8028L155.195 65.3261H155.764L154.474 69.5151H153.871L152.79 66.1388L151.709 69.5151H151.106L149.816 65.3261H150.386L151.416 68.8028L152.513 65.3261H153.067L154.164 68.8028Z" fill="white"/>
</g>
<g id="g88">
<path id="path90" d="M159.777 68.6018C160.096 68.9201 160.487 69.0795 160.95 69.0795C161.414 69.0795 161.805 68.9201 162.123 68.6018C162.441 68.2723 162.601 67.8783 162.601 67.4206C162.601 66.9569 162.441 66.5659 162.123 66.2473C161.805 65.9238 161.414 65.7617 160.95 65.7617C160.487 65.7617 160.096 65.9238 159.777 66.2473C159.459 66.5659 159.3 66.9569 159.3 67.4206C159.3 67.8783 159.459 68.2723 159.777 68.6018ZM162.509 68.9871C162.078 69.406 161.559 69.6157 160.95 69.6157C160.33 69.6157 159.808 69.406 159.383 68.9871C158.959 68.5629 158.747 68.0404 158.747 67.4206C158.747 66.8002 158.959 66.2811 159.383 65.8621C159.808 65.4379 160.33 65.2255 160.95 65.2255C161.565 65.2255 162.084 65.4379 162.509 65.8621C162.939 66.2811 163.154 66.8002 163.154 67.4206C163.154 68.0349 162.939 68.5571 162.509 68.9871Z" fill="white"/>
</g>
<g id="g92">
<path id="path94" d="M167.192 65.326V66.0216C167.449 65.5131 167.89 65.2591 168.515 65.2591V65.7952C168.113 65.7952 167.792 65.9113 167.552 66.1426C167.312 66.3744 167.192 66.7223 167.192 67.1861V69.515H166.639V65.326H167.192Z" fill="white"/>
</g>
<path id="path96" d="M172.386 69.5151H171.833V63.3991H172.386V69.5151Z" fill="white"/>
<g id="g98">
<path id="path100" d="M176.901 68.6018C177.22 68.9201 177.611 69.0795 178.074 69.0795C178.538 69.0795 178.929 68.9201 179.247 68.6018C179.565 68.2723 179.725 67.8783 179.725 67.4206C179.725 66.9569 179.565 66.5659 179.247 66.2473C178.929 65.9238 178.538 65.7617 178.074 65.7617C177.611 65.7617 177.22 65.9238 176.901 66.2473C176.583 66.5659 176.424 66.9569 176.424 67.4206C176.424 67.8783 176.583 68.2723 176.901 68.6018ZM179.725 66.1469V63.6503H180.278V69.515H179.725V68.6937C179.34 69.3086 178.776 69.6157 178.032 69.6157C177.435 69.6157 176.924 69.4033 176.5 68.9785C176.081 68.5543 175.871 68.0349 175.871 67.4206C175.871 66.8063 176.081 66.2869 176.5 65.8621C176.924 65.4379 177.435 65.2255 178.032 65.2255C178.776 65.2255 179.34 65.5326 179.725 66.1469Z" fill="white"/>
</g>
<g id="g102">
<path id="path104" d="M62.4989 50.3829L46.1471 50.3832C46 50.8082 45.7602 51.2085 45.4208 51.5479C44.2234 52.7453 42.2819 52.7453 41.0842 51.5479C39.8868 50.3505 39.8868 48.409 41.0842 47.2116C42.2819 46.0139 44.2234 46.0139 45.4208 47.2116C45.7602 47.551 46 47.9513 46.1471 48.3766L60.8178 48.3763L47.3914 34.95C45.4573 33.0161 42.3217 33.0161 40.3875 34.95L34.2128 41.1247H43.9112C44.0582 40.6994 44.298 40.299 44.6375 39.9596C45.8349 38.762 47.7764 38.762 48.9738 39.9596C50.1715 41.157 50.1715 43.0986 48.9738 44.296C47.7764 45.4934 45.8349 45.4934 44.6375 44.296C44.298 43.9566 44.0582 43.5562 43.9112 43.1312L32.2066 43.1309L26.1729 49.1649C24.2388 51.0987 24.2388 54.2347 26.1729 56.1688L26.3573 56.3532L31.8027 50.9075C31.6059 50.5028 31.4926 50.0503 31.4926 49.5702C31.4926 47.8767 32.8653 46.5039 34.5588 46.5039C36.2523 46.5039 37.6253 47.8767 37.6253 49.5702C37.6253 51.2636 36.2523 52.6367 34.5588 52.6367C34.0787 52.6367 33.6262 52.5231 33.2218 52.3263L27.7761 57.772L32.1648 62.1608L39.0088 55.3168H48.7384C49.2479 54.3299 50.2755 53.6538 51.4627 53.6538C53.1562 53.6538 54.529 55.0265 54.529 56.72C54.529 58.4135 53.1562 59.7865 51.4627 59.7865C49.9758 59.7865 48.7367 58.728 48.4563 57.3234H39.8402L33.5837 63.5796L38.7177 68.7136L41.5567 65.8748C41.36 65.4701 41.2466 65.0176 41.2466 64.5375C41.2466 62.844 42.6194 61.4712 44.3129 61.4712C46.0064 61.4712 47.3791 62.844 47.3791 64.5375C47.3791 66.2309 46.0064 67.6037 44.3129 67.6037C43.8327 67.6037 43.3802 67.4904 42.9755 67.2936L40.1368 70.1327L40.3875 70.3835C42.3217 72.3176 45.4573 72.3176 47.3914 70.3835L61.6061 56.1688C63.1723 54.6026 63.4692 52.249 62.4989 50.3829Z" fill="#F4BA2F"/>
</g>
</g>
</g>
</g>
</g>
</g>
</svg>
