<svg width="96" height="34" viewBox="0 0 96 34" fill="none" xmlns="http://www.w3.org/2000/svg">
<g id="Group 11" opacity="0.1">
<g id="PROTECTED">
<path d="M0.473633 11.7014V0.197771H5.87934C6.43024 0.197771 6.92375 0.285669 7.35988 0.461465C7.80749 0.626274 8.18623 0.867995 8.49611 1.18663C8.80599 1.49427 9.04127 1.86784 9.20195 2.30733C9.36263 2.74682 9.44297 3.23026 9.44297 3.75765C9.44297 4.29602 9.36263 4.78496 9.20195 5.22445C9.04127 5.65295 8.80599 6.02652 8.49611 6.34515C8.18623 6.65279 7.80749 6.89452 7.35988 7.07031C6.92375 7.23512 6.43024 7.31753 5.87934 7.31753H2.74609V11.7014H0.473633ZM2.74609 5.4387H5.67275C6.10888 5.4387 6.45319 5.32883 6.70569 5.10908C6.95818 4.87835 7.08443 4.55423 7.08443 4.13671V3.37859C7.08443 2.96107 6.95818 2.64244 6.70569 2.42269C6.45319 2.20295 6.10888 2.09308 5.67275 2.09308H2.74609V5.4387Z" fill="#D2D4D7"/>
<path d="M13.7748 11.7014H11.5024V0.197771H16.9253C17.4762 0.197771 17.9697 0.280176 18.4058 0.444985C18.842 0.609794 19.2092 0.851514 19.5076 1.17014C19.8175 1.47779 20.0528 1.85136 20.2135 2.29085C20.3856 2.73034 20.4717 3.21927 20.4717 3.75765C20.4717 4.54873 20.2824 5.22994 19.9036 5.80128C19.5363 6.37262 18.9797 6.77915 18.2337 7.02087L20.6955 11.7014H18.1648L15.9268 7.26808H13.7748V11.7014ZM16.7015 5.4387C17.1376 5.4387 17.4819 5.32883 17.7344 5.10908C17.9869 4.87835 18.1132 4.55423 18.1132 4.13671V3.37859C18.1132 2.96107 17.9869 2.64244 17.7344 2.42269C17.4819 2.20295 17.1376 2.09308 16.7015 2.09308H13.7748V5.4387H16.7015Z" fill="#D2D4D7"/>
<path d="M27.4836 11.8992C26.6917 11.8992 25.9744 11.7729 25.3316 11.5202C24.6889 11.2675 24.138 10.8884 23.6789 10.383C23.2313 9.87756 22.8813 9.25678 22.6288 8.52063C22.3763 7.78448 22.25 6.92748 22.25 5.94961C22.25 4.98273 22.3763 4.13122 22.6288 3.39507C22.8813 2.64793 23.2313 2.02166 23.6789 1.51624C24.138 1.01083 24.6889 0.631768 25.3316 0.379061C25.9744 0.126354 26.6917 0 27.4836 0C28.2755 0 28.9928 0.126354 29.6355 0.379061C30.2783 0.631768 30.8292 1.01083 31.2882 1.51624C31.7473 2.02166 32.0974 2.64793 32.3384 3.39507C32.5909 4.13122 32.7171 4.98273 32.7171 5.94961C32.7171 6.92748 32.5909 7.78448 32.3384 8.52063C32.0974 9.25678 31.7473 9.87756 31.2882 10.383C30.8292 10.8884 30.2783 11.2675 29.6355 11.5202C28.9928 11.7729 28.2755 11.8992 27.4836 11.8992ZM27.4836 9.97095C28.3444 9.97095 29.0273 9.69627 29.5322 9.14691C30.0487 8.59754 30.307 7.82843 30.307 6.83958V5.05964C30.307 4.07079 30.0487 3.30168 29.5322 2.75231C29.0273 2.20295 28.3444 1.92827 27.4836 1.92827C26.6228 1.92827 25.9342 2.20295 25.4177 2.75231C24.9127 3.30168 24.6602 4.07079 24.6602 5.05964V6.83958C24.6602 7.82843 24.9127 8.59754 25.4177 9.14691C25.9342 9.69627 26.6228 9.97095 27.4836 9.97095Z" fill="#D2D4D7"/>
<path d="M39.3193 2.12604V11.7014H37.0469V2.12604H33.6382V0.197771H42.728V2.12604H39.3193Z" fill="#D2D4D7"/>
<path d="M44.5886 11.7014V0.197771H52.5078V2.12604H46.8611V4.91131H51.8536V6.83958H46.8611V9.77318H52.5078V11.7014H44.5886Z" fill="#D2D4D7"/>
<path d="M59.5767 11.8992C58.7848 11.8992 58.0675 11.7784 57.4248 11.5366C56.7935 11.2839 56.2484 10.9104 55.7893 10.4159C55.3417 9.92151 54.9974 9.31172 54.7564 8.58656C54.5153 7.85041 54.3948 6.99889 54.3948 6.03201C54.3948 5.06513 54.5153 4.20813 54.7564 3.46099C54.9974 2.70287 55.3417 2.0711 55.7893 1.56569C56.2484 1.04928 56.7935 0.659236 57.4248 0.395542C58.0675 0.131847 58.7848 0 59.5767 0C60.6556 0 61.5508 0.219746 62.2624 0.659237C62.9739 1.09873 63.5421 1.76346 63.9667 2.65343L62.0213 3.64228C61.8492 3.12588 61.568 2.71386 61.1778 2.40621C60.7876 2.08758 60.2539 1.92827 59.5767 1.92827C58.7274 1.92827 58.0503 2.20295 57.5453 2.75231C57.0518 3.30168 56.805 4.07079 56.805 5.05964V6.87254C56.805 7.87238 57.0518 8.64149 57.5453 9.17987C58.0503 9.70726 58.7274 9.97095 59.5767 9.97095C60.2539 9.97095 60.8048 9.79516 61.2294 9.44356C61.6656 9.09197 61.9812 8.65797 62.1763 8.14157L64.0184 9.17987C63.5822 10.0369 63.0026 10.7071 62.2796 11.1905C61.5565 11.663 60.6556 11.8992 59.5767 11.8992Z" fill="#D2D4D7"/>
<path d="M70.6739 2.12604V11.7014H68.4015V2.12604H64.9928V0.197771H74.0826V2.12604H70.6739Z" fill="#D2D4D7"/>
<path d="M75.9433 11.7014V0.197771H83.8624V2.12604H78.2157V4.91131H83.2083V6.83958H78.2157V9.77318H83.8624V11.7014H75.9433Z" fill="#D2D4D7"/>
<path d="M86.2659 0.197771H90.6387C91.4191 0.197771 92.125 0.318631 92.7562 0.560351C93.3989 0.802071 93.9441 1.16465 94.3917 1.64809C94.8508 2.12054 95.2008 2.71935 95.4418 3.44451C95.6943 4.15868 95.8206 4.99372 95.8206 5.94961C95.8206 6.9055 95.6943 7.74603 95.4418 8.47119C95.2008 9.18536 94.8508 9.78417 94.3917 10.2676C93.9441 10.7401 93.3989 11.0971 92.7562 11.3389C92.125 11.5806 91.4191 11.7014 90.6387 11.7014H86.2659V0.197771ZM90.6387 9.77318C91.488 9.77318 92.1594 9.53695 92.6529 9.0645C93.1579 8.58106 93.4104 7.84491 93.4104 6.85606V5.04316C93.4104 4.0543 93.1579 3.32365 92.6529 2.8512C92.1594 2.36776 91.488 2.12604 90.6387 2.12604H88.5384V9.77318H90.6387Z" fill="#D2D4D7"/>
</g>
<g id="BY SYNC">
<path d="M3.37227 17.1031H10.5504C11.1606 17.1031 11.7227 17.1745 12.2365 17.3173C12.7504 17.4442 13.192 17.6505 13.5613 17.9361C13.9307 18.2216 14.2197 18.5786 14.4285 19.007C14.6373 19.4354 14.7416 19.9351 14.7416 20.5063C14.7416 21.601 14.4686 22.5688 13.9227 23.4097C13.3927 24.2347 12.5738 24.7979 11.4657 25.0994L11.4416 25.2184C12.3248 25.4564 12.9592 25.8609 13.3446 26.4321C13.746 26.9874 13.9467 27.6538 13.9467 28.4312C13.9467 29.2245 13.8263 29.9463 13.5854 30.5968C13.3446 31.2315 12.9752 31.7868 12.4774 32.2627C11.9956 32.7228 11.3935 33.0798 10.6708 33.3337C9.9482 33.5875 9.10513 33.7144 8.14163 33.7144H0L3.37227 17.1031ZM8.14163 30.7634C9.26572 30.7634 9.93214 30.2478 10.1409 29.2165C10.2212 28.804 10.2774 28.5026 10.3095 28.3122C10.3416 28.1218 10.3577 27.9711 10.3577 27.86C10.3577 27.5427 10.2533 27.2888 10.0445 27.0985C9.83579 26.8922 9.49856 26.7891 9.03287 26.7891H4.91388L4.11899 30.7634H8.14163ZM8.88834 23.9571C9.45039 23.9571 9.89199 23.846 10.2132 23.6239C10.5504 23.4018 10.7752 23.021 10.8876 22.4816C10.9679 22.0691 11.0241 21.7755 11.0562 21.601C11.0883 21.4265 11.1044 21.2837 11.1044 21.1727C11.1044 20.8395 11 20.5698 10.7913 20.3635C10.5825 20.1573 10.2533 20.0541 9.80367 20.0541H6.28688L5.49198 23.9571H8.88834Z" fill="#D2D4D7"/>
<path d="M18.6517 33.7144L19.9525 27.2651L16.3875 17.1031H19.9525L22.2167 24.0999H22.3853L27.2269 17.1031H31.081L23.397 27.5744L22.1445 33.7144H18.6517Z" fill="#D2D4D7"/>
<path d="M41.0617 34C39.6646 34 38.4201 33.7779 37.3281 33.3337C36.2522 32.8894 35.4092 32.1279 34.7989 31.049L37.4727 28.9785C37.8902 29.6449 38.3719 30.1367 38.9179 30.454C39.48 30.7714 40.1946 30.93 41.0617 30.93C42.0734 30.93 42.8603 30.7079 43.4223 30.2637C43.9844 29.8194 44.2654 29.2483 44.2654 28.5502C44.2654 28.0425 44.0807 27.6617 43.7114 27.4078C43.342 27.154 42.8844 26.9636 42.3384 26.8367L41.2303 26.5987C40.6201 26.4718 40.0661 26.2972 39.5683 26.0751C39.0705 25.8371 38.6449 25.5436 38.2916 25.1946C37.9384 24.8297 37.6654 24.4013 37.4727 23.9095C37.296 23.4176 37.2077 22.8385 37.2077 22.1722C37.2077 21.4106 37.3603 20.7046 37.6654 20.0541C37.9865 19.4036 38.4281 18.8404 38.9902 18.3644C39.5522 17.8885 40.2347 17.5156 41.0376 17.2459C41.8406 16.9603 42.7238 16.8175 43.6873 16.8175C44.9398 16.8175 46.0639 17.0159 47.0595 17.4125C48.0712 17.7933 48.8661 18.3644 49.4442 19.126L46.915 21.363C46.5296 20.8395 46.08 20.4666 45.5661 20.2445C45.0683 20.0065 44.3938 19.8875 43.5428 19.8875C42.6756 19.8875 41.9851 20.07 41.4712 20.4349C40.9734 20.7998 40.7245 21.2758 40.7245 21.8628C40.7245 22.3388 40.8771 22.6958 41.1822 22.9337C41.5033 23.1717 41.953 23.3542 42.5311 23.4811L43.5909 23.7191C44.2333 23.8619 44.8194 24.0523 45.3493 24.2902C45.8793 24.5282 46.3289 24.8297 46.6982 25.1946C47.0676 25.5436 47.3566 25.9641 47.5654 26.4559C47.7742 26.9477 47.8785 27.5189 47.8785 28.1694C47.8785 28.8833 47.7179 29.5894 47.3968 30.2875C47.0917 30.9855 46.642 31.6122 46.0479 32.1675C45.4698 32.707 44.7552 33.1512 43.9041 33.5002C43.069 33.8334 42.1216 34 41.0617 34Z" fill="#D2D4D7"/>
<path d="M52.8778 33.7144L54.1786 27.2651L50.6136 17.1031H54.1786L56.4428 24.0999H56.6114L61.453 17.1031H65.3071L57.6231 27.5744L56.3706 33.7144H52.8778Z" fill="#D2D4D7"/>
<path d="M70.7274 25.7182L69.7157 22.4102H69.5712L67.2828 33.7144H63.9828L67.3551 17.1031H71.1368L73.8587 25.0994L74.8704 28.4074H75.015L77.3033 17.1031H80.6033L77.231 33.7144H73.4493L70.7274 25.7182Z" fill="#D2D4D7"/>
<path d="M87.6898 34C86.7905 34 85.9715 33.8572 85.2328 33.5716C84.5102 33.2861 83.8839 32.8656 83.354 32.3103C82.8241 31.7392 82.4146 31.0331 82.1255 30.1923C81.8365 29.3514 81.6919 28.3677 81.6919 27.2413C81.6919 25.7816 81.9087 24.4172 82.3423 23.1479C82.7919 21.8787 83.4022 20.776 84.173 19.8399C84.9438 18.9039 85.8511 18.1661 86.8949 17.6267C87.9547 17.0873 89.0949 16.8175 90.3153 16.8175C91.8248 16.8175 93.0452 17.1745 93.9766 17.8885C94.9241 18.5866 95.5985 19.5782 96 20.8633L92.8927 22.1484C92.7963 21.8311 92.6759 21.5376 92.5314 21.2678C92.3869 20.9823 92.2022 20.7443 91.9774 20.5539C91.7686 20.3476 91.5036 20.189 91.1825 20.0779C90.8774 19.951 90.5 19.8875 90.0504 19.8875C88.9263 19.8875 88.0109 20.2683 87.3044 21.0299C86.6138 21.7914 86.1401 22.7989 85.8832 24.0523L85.3533 26.6701C85.3051 26.9081 85.273 27.1302 85.2569 27.3364C85.2409 27.5268 85.2328 27.7014 85.2328 27.86C85.2328 29.9067 86.1562 30.93 88.0029 30.93C88.9503 30.93 89.7051 30.7 90.2671 30.2399C90.8452 29.7798 91.319 29.1848 91.6883 28.455L94.6029 29.7639C93.8482 31.2077 92.8686 32.2786 91.6642 32.9767C90.4759 33.6589 89.1511 34 87.6898 34Z" fill="#D2D4D7"/>
</g>
</g>
</svg>
