<svg width="32" height="32" viewBox="0 0 32 32" fill="none" xmlns="http://www.w3.org/2000/svg">
<g id="vuesax/outline/electricity">
<g id="electricity">
<path id="Vector" d="M18 22.3333H14C10.3333 22.3333 7.66666 19.6667 7.66666 16V9.22666C7.66666 7.26666 9.26667 5.66667 11.2267 5.66667H20.7867C22.7467 5.66667 24.3467 7.26666 24.3467 9.22666V16C24.3333 19.6667 21.6667 22.3333 18 22.3333ZM11.2267 7.66667C10.3733 7.66667 9.66666 8.36 9.66666 9.22666V16C9.66666 18.16 11 20.3333 14 20.3333H18C21 20.3333 22.3333 18.16 22.3333 16V9.22666C22.3333 8.37333 21.64 7.66667 20.7733 7.66667H11.2267Z" fill="url(#paint0_linear_2508_64)"/>
<path id="Vector_2" d="M12.6667 7.66667C12.12 7.66667 11.6667 7.21333 11.6667 6.66667V2.66667C11.6667 2.12 12.12 1.66667 12.6667 1.66667C13.2133 1.66667 13.6667 2.12 13.6667 2.66667V6.66667C13.6667 7.21333 13.2133 7.66667 12.6667 7.66667Z" fill="url(#paint1_linear_2508_64)"/>
<path id="Vector_3" d="M19.3333 7.66667C18.7867 7.66667 18.3333 7.21333 18.3333 6.66667V2.66667C18.3333 2.12 18.7867 1.66667 19.3333 1.66667C19.88 1.66667 20.3333 2.12 20.3333 2.66667V6.66667C20.3333 7.21333 19.88 7.66667 19.3333 7.66667Z" fill="url(#paint2_linear_2508_64)"/>
<path id="Vector_4" d="M16 30.3333C15.4533 30.3333 15 29.88 15 29.3333V21.3333C15 20.7867 15.4533 20.3333 16 20.3333C16.5467 20.3333 17 20.7867 17 21.3333V29.3333C17 29.88 16.5467 30.3333 16 30.3333Z" fill="url(#paint3_linear_2508_64)"/>
</g>
</g>
<defs>
<linearGradient id="paint0_linear_2508_64" x1="7.66666" y1="14" x2="24.3467" y2="14" gradientUnits="userSpaceOnUse">
<stop stop-color="#F8D239"/>
<stop offset="1" stop-color="#F0B90B"/>
</linearGradient>
<linearGradient id="paint1_linear_2508_64" x1="11.6667" y1="4.66667" x2="13.6667" y2="4.66667" gradientUnits="userSpaceOnUse">
<stop stop-color="#F8D239"/>
<stop offset="1" stop-color="#F0B90B"/>
</linearGradient>
<linearGradient id="paint2_linear_2508_64" x1="18.3333" y1="4.66667" x2="20.3333" y2="4.66667" gradientUnits="userSpaceOnUse">
<stop stop-color="#F8D239"/>
<stop offset="1" stop-color="#F0B90B"/>
</linearGradient>
<linearGradient id="paint3_linear_2508_64" x1="15" y1="25.3333" x2="17" y2="25.3333" gradientUnits="userSpaceOnUse">
<stop stop-color="#F8D239"/>
<stop offset="1" stop-color="#F0B90B"/>
</linearGradient>
</defs>
</svg>
