<svg width="32" height="32" viewBox="0 0 32 32" fill="none" xmlns="http://www.w3.org/2000/svg">
<g id="language-square">
<path id="Vector" opacity="0.4" d="M30 16C30 8.26801 23.732 2 16 2C8.26801 2 2 8.26801 2 16C2 23.732 8.26801 30 16 30C23.732 30 30 23.732 30 16Z" fill="#D2D4D7"/>
<path id="Vector_2" d="M22.6667 21.2933C20.92 21.2933 19.2534 20.4933 17.92 19.0133C19.24 17.32 20.0933 15.2267 20.28 12.9333H22.6533C23.2 12.9333 23.6533 12.48 23.6533 11.9333C23.6533 11.3867 23.2 10.9333 22.6533 10.9333H19.4134C19.3867 10.9333 19.36 10.92 19.3334 10.92C19.3067 10.92 19.28 10.9333 19.2534 10.9333H17V9.6933C17 9.14663 16.5467 8.6933 16 8.6933C15.4534 8.6933 15 9.14663 15 9.6933V10.9333H9.3467C8.80003 10.9333 8.3467 11.3867 8.3467 11.9333C8.3467 12.48 8.80003 12.9333 9.3467 12.9333H16H18.2667C17.7734 17.6267 13.96 21.2933 9.32001 21.2933C8.77334 21.2933 8.32001 21.7466 8.32001 22.2933C8.32001 22.84 8.77334 23.2933 9.32001 23.2933C12.08 23.2933 14.6 22.2266 16.5333 20.48C18.2267 22.2933 20.3733 23.2933 22.6533 23.2933C23.2 23.2933 23.6533 22.84 23.6533 22.2933C23.6533 21.7466 23.2134 21.2933 22.6667 21.2933Z" fill="#D2D4D7"/>
</g>
</svg>
