<svg width="32" height="32" viewBox="0 0 32 32" fill="none" xmlns="http://www.w3.org/2000/svg">
<g id="vuesax/bulk/login">
<g id="login">
<path id="Vector" opacity="0.4" d="M12 9.60002V22.3867C12 26.6667 14.6667 29.3334 18.9333 29.3334H22.3867C26.6533 29.3334 29.32 26.6667 29.32 22.4V9.60002C29.3333 5.33335 26.6667 2.66669 22.4 2.66669H18.9333C14.6667 2.66669 12 5.33335 12 9.60002Z" fill="#D2D4D7"/>
<path id="Vector_2" d="M16.5734 10.8267L21.04 15.2933C21.4267 15.68 21.4267 16.32 21.04 16.7067L16.5734 21.1733C16.1867 21.56 15.5467 21.56 15.16 21.1733C14.7734 20.7867 14.7734 20.1467 15.16 19.76L17.92 17H3.66669C3.12002 17 2.66669 16.5467 2.66669 16C2.66669 15.4533 3.12002 15 3.66669 15H17.92L15.16 12.24C14.96 12.04 14.8667 11.7867 14.8667 11.5333C14.8667 11.28 14.96 11.0267 15.16 10.8267C15.5467 10.4267 16.1734 10.4267 16.5734 10.8267Z" fill="#D2D4D7"/>
</g>
</g>
</svg>
