<svg width="32" height="32" viewBox="0 0 32 32" fill="none" xmlns="http://www.w3.org/2000/svg">
<g id="on\off_solid">
<circle id="Ellipse 1" opacity="0.4" cx="16" cy="16" r="14" fill="#D2D4D7"/>
<g id="Vector">
<path d="M16 7.33335C16.6667 7.33335 17.3334 7.86669 17.3334 8.66669V13.6C17.3334 14.2667 16.6667 14.9334 16 14.9334C15.3334 14.9334 14.6667 14.2667 14.6667 13.6V8.66669C14.6667 7.86669 15.3334 7.33335 16 7.33335Z" fill="#D2D4D7"/>
<path d="M16 23.8667C11.7334 23.8667 8.13335 20.4 8.13335 16C8.13335 13.7334 9.20002 11.4667 10.9334 10C11.4667 9.60002 12.4 9.60002 12.8 10.1334C13.3334 10.8 13.2 11.6 12.6667 12.1334C11.4667 13.0667 10.8 14.5334 10.8 16.1334C10.8 18.9334 13.0667 21.3334 16 21.3334C18.9334 21.3334 21.2 19.0667 21.2 16.1334C21.2 14.6667 20.5334 13.2 19.3334 12.1334C18.8 11.7334 18.6667 10.8 19.2 10.2667C19.7334 9.73335 20.5334 9.60002 21.0667 10.1334C22.8 11.6 23.8667 13.8667 23.8667 16.1334C23.8667 20.4 20.2667 23.8667 16 23.8667Z" fill="#D2D4D7"/>
</g>
</g>
</svg>
