<svg width="32" height="32" viewBox="0 0 32 32" fill="none" xmlns="http://www.w3.org/2000/svg">
<g id="vuesax/outline/slack">
<g id="slack">
<path id="Vector" d="M19.3867 15.16C17.4667 15.16 15.9067 13.6 15.9067 11.68V5.49333C15.9067 3.57333 17.4667 2.01335 19.3867 2.01335C21.3067 2.01335 22.8667 3.57333 22.8667 5.49333V11.68C22.8667 13.6 21.3067 15.16 19.3867 15.16ZM19.3867 4.01335C18.5733 4.01335 17.9067 4.67999 17.9067 5.49333V11.68C17.9067 12.4933 18.5733 13.16 19.3867 13.16C20.2 13.16 20.8667 12.4933 20.8667 11.68V5.49333C20.8667 4.67999 20.2 4.01335 19.3867 4.01335Z" fill="url(#paint0_linear_2508_27)"/>
<path id="Vector_2" d="M26.9067 15.16H24.8134C24.2667 15.16 23.8134 14.7067 23.8134 14.16V12.0666C23.8134 10.36 25.2 8.97335 26.9067 8.97335C28.6133 8.97335 30 10.36 30 12.0666C30 13.7733 28.6133 15.16 26.9067 15.16ZM25.8267 13.16H26.92C27.52 13.16 28.0133 12.6666 28.0133 12.0666C28.0133 11.4666 27.52 10.9733 26.92 10.9733C26.32 10.9733 25.8267 11.4666 25.8267 12.0666V13.16Z" fill="url(#paint1_linear_2508_27)"/>
<path id="Vector_3" d="M11.3334 15.7733H5.14669C3.22669 15.7733 1.66669 14.2133 1.66669 12.2933C1.66669 10.3733 3.22669 8.81331 5.14669 8.81331H11.3334C13.2534 8.81331 14.8134 10.3733 14.8134 12.2933C14.8134 14.2133 13.2534 15.7733 11.3334 15.7733ZM5.14669 10.8267C4.33335 10.8267 3.66669 11.4933 3.66669 12.3067C3.66669 13.12 4.33335 13.7867 5.14669 13.7867H11.3334C12.1467 13.7867 12.8134 13.12 12.8134 12.3067C12.8134 11.4933 12.1467 10.8267 11.3334 10.8267H5.14669Z" fill="url(#paint2_linear_2508_27)"/>
<path id="Vector_4" d="M13.8133 7.84001H11.72C10.0133 7.84001 8.62665 6.45333 8.62665 4.74666C8.62665 3.04 10.0133 1.65332 11.72 1.65332C13.4266 1.65332 14.8133 3.04 14.8133 4.74666V6.84001C14.8133 7.40001 14.36 7.84001 13.8133 7.84001ZM11.72 3.66667C11.12 3.66667 10.6266 4.16001 10.6266 4.76001C10.6266 5.36001 11.12 5.85335 11.72 5.85335H12.8133V4.76001C12.8133 4.16001 12.32 3.66667 11.72 3.66667Z" fill="url(#paint3_linear_2508_27)"/>
<path id="Vector_5" d="M12.5733 30.0267C10.6533 30.0267 9.09332 28.4667 9.09332 26.5467V20.36C9.09332 18.44 10.6533 16.88 12.5733 16.88C14.4933 16.88 16.0533 18.44 16.0533 20.36V26.5467C16.0533 28.4667 14.4933 30.0267 12.5733 30.0267ZM12.5733 18.88C11.76 18.88 11.0933 19.5467 11.0933 20.36V26.5467C11.0933 27.36 11.76 28.0267 12.5733 28.0267C13.3866 28.0267 14.0533 27.36 14.0533 26.5467V20.36C14.0533 19.5333 13.3866 18.88 12.5733 18.88Z" fill="url(#paint4_linear_2508_27)"/>
<path id="Vector_6" d="M5.05334 23.0533C3.34668 23.0533 1.96002 21.6667 1.96002 19.96C1.96002 18.2533 3.34668 16.8667 5.05334 16.8667H7.14669C7.69335 16.8667 8.14669 17.32 8.14669 17.8667V19.96C8.14669 21.6667 6.76001 23.0533 5.05334 23.0533ZM5.05334 18.88C4.45334 18.88 3.96002 19.3734 3.96002 19.9734C3.96002 20.5734 4.45334 21.0667 5.05334 21.0667C5.65334 21.0667 6.14669 20.5734 6.14669 19.9734V18.88H5.05334Z" fill="url(#paint5_linear_2508_27)"/>
<path id="Vector_7" d="M26.8133 23.2133H20.6267C18.7067 23.2133 17.1467 21.6533 17.1467 19.7333C17.1467 17.8133 18.7067 16.2533 20.6267 16.2533H26.8133C28.7333 16.2533 30.2933 17.8133 30.2933 19.7333C30.2933 21.6533 28.7333 23.2133 26.8133 23.2133ZM20.6267 18.2533C19.8133 18.2533 19.1467 18.92 19.1467 19.7333C19.1467 20.5466 19.8133 21.2133 20.6267 21.2133H26.8133C27.6267 21.2133 28.2933 20.5466 28.2933 19.7333C28.2933 18.92 27.6267 18.2533 26.8133 18.2533H20.6267Z" fill="url(#paint6_linear_2508_27)"/>
<path id="Vector_8" d="M20.24 30.3067C18.5333 30.3067 17.1467 28.92 17.1467 27.2133V25.12C17.1467 24.5733 17.6 24.12 18.1467 24.12H20.24C21.9467 24.12 23.3333 25.5067 23.3333 27.2133C23.3333 28.92 21.9333 30.3067 20.24 30.3067ZM19.1467 26.12V27.2133C19.1467 27.8133 19.64 28.3067 20.24 28.3067C20.84 28.3067 21.3333 27.8133 21.3333 27.2133C21.3333 26.6133 20.84 26.12 20.24 26.12H19.1467Z" fill="url(#paint7_linear_2508_27)"/>
</g>
</g>
<defs>
<linearGradient id="paint0_linear_2508_27" x1="15.9067" y1="8.58667" x2="22.8667" y2="8.58667" gradientUnits="userSpaceOnUse">
<stop stop-color="#F8D239"/>
<stop offset="1" stop-color="#F0B90B"/>
</linearGradient>
<linearGradient id="paint1_linear_2508_27" x1="23.8134" y1="12.0667" x2="30" y2="12.0667" gradientUnits="userSpaceOnUse">
<stop stop-color="#F8D239"/>
<stop offset="1" stop-color="#F0B90B"/>
</linearGradient>
<linearGradient id="paint2_linear_2508_27" x1="1.66669" y1="12.2933" x2="14.8134" y2="12.2933" gradientUnits="userSpaceOnUse">
<stop stop-color="#F8D239"/>
<stop offset="1" stop-color="#F0B90B"/>
</linearGradient>
<linearGradient id="paint3_linear_2508_27" x1="8.62665" y1="4.74666" x2="14.8133" y2="4.74666" gradientUnits="userSpaceOnUse">
<stop stop-color="#F8D239"/>
<stop offset="1" stop-color="#F0B90B"/>
</linearGradient>
<linearGradient id="paint4_linear_2508_27" x1="9.09332" y1="23.4533" x2="16.0533" y2="23.4533" gradientUnits="userSpaceOnUse">
<stop stop-color="#F8D239"/>
<stop offset="1" stop-color="#F0B90B"/>
</linearGradient>
<linearGradient id="paint5_linear_2508_27" x1="1.96002" y1="19.96" x2="8.14669" y2="19.96" gradientUnits="userSpaceOnUse">
<stop stop-color="#F8D239"/>
<stop offset="1" stop-color="#F0B90B"/>
</linearGradient>
<linearGradient id="paint6_linear_2508_27" x1="17.1467" y1="19.7333" x2="30.2933" y2="19.7333" gradientUnits="userSpaceOnUse">
<stop stop-color="#F8D239"/>
<stop offset="1" stop-color="#F0B90B"/>
</linearGradient>
<linearGradient id="paint7_linear_2508_27" x1="17.1467" y1="27.2133" x2="23.3333" y2="27.2133" gradientUnits="userSpaceOnUse">
<stop stop-color="#F8D239"/>
<stop offset="1" stop-color="#F0B90B"/>
</linearGradient>
</defs>
</svg>
