<svg width="32" height="32" viewBox="0 0 32 32" fill="none" xmlns="http://www.w3.org/2000/svg">
<g id="temperature-02">
<path id="Icon" d="M8.79999 18.6037L9.37209 19.4239C9.64021 19.2369 9.79999 18.9307 9.79999 18.6037H8.79999ZM15.2 18.6037H14.2C14.2 18.8882 14.3211 19.1592 14.5331 19.3489L15.2 18.6037ZM12 22.2C11.4477 22.2 11 22.6477 11 23.2C11 23.7523 11.4477 24.2 12 24.2V22.2ZM12.075 24.2C12.6273 24.2 13.075 23.7523 13.075 23.2C13.075 22.6477 12.6273 22.2 12.075 22.2V24.2ZM16.6 23.2C16.6 25.7405 14.5405 27.8 12 27.8V29.8C15.6451 29.8 18.6 26.8451 18.6 23.2H16.6ZM12 27.8C9.45948 27.8 7.39999 25.7405 7.39999 23.2H5.39999C5.39999 26.8451 8.35491 29.8 12 29.8V27.8ZM7.39999 23.2C7.39999 21.6377 8.17793 20.2569 9.37209 19.4239L8.2279 17.7836C6.52048 18.9745 5.39999 20.9563 5.39999 23.2H7.39999ZM14.5331 19.3489C15.0211 19.7857 15.5528 20.433 15.9577 21.154C16.3678 21.8845 16.6 22.605 16.6 23.2H18.6C18.6 22.1365 18.205 21.0715 17.7016 20.1749C17.1929 19.2688 16.5245 18.4472 15.8669 17.8586L14.5331 19.3489ZM14.2 6.4V18.6037H16.2V6.4H14.2ZM9.79999 18.6037V6.39791H7.79999V18.6037H9.79999ZM12 4.2C13.215 4.2 14.2 5.18497 14.2 6.4H16.2C16.2 4.0804 14.3196 2.2 12 2.2V4.2ZM12 2.2C9.68125 2.2 7.79999 4.07746 7.79999 6.39791H9.79999C9.79999 5.18373 10.7841 4.2 12 4.2V2.2ZM12 24.2H12.075V22.2H12V24.2ZM24.6 9.6C24.6 10.815 23.615 11.8 22.4 11.8V13.8C24.7196 13.8 26.6 11.9196 26.6 9.6H24.6ZM22.4 11.8C21.185 11.8 20.2 10.815 20.2 9.6H18.2C18.2 11.9196 20.0804 13.8 22.4 13.8V11.8ZM20.2 9.6C20.2 8.38497 21.185 7.4 22.4 7.4V5.4C20.0804 5.4 18.2 7.2804 18.2 9.6H20.2ZM22.4 7.4C23.615 7.4 24.6 8.38497 24.6 9.6H26.6C26.6 7.2804 24.7196 5.4 22.4 5.4V7.4Z" fill="url(#paint0_linear_101_3823)"/>
</g>
<defs>
<linearGradient id="paint0_linear_101_3823" x1="6.39999" y1="16" x2="25.6" y2="16" gradientUnits="userSpaceOnUse">
<stop stop-color="#F8D239"/>
<stop offset="1" stop-color="#F0B90B"/>
</linearGradient>
</defs>
</svg>
